<?xml version="1.0" encoding="UTF-8" standalone="no"?>
<!-- Created with Inkscape (http://www.inkscape.org/) -->

<svg
   width="188mm"
   height="163mm"
   viewBox="0 0 188 163"
   version="1.1"
   id="svg1"
   xml:space="preserve"
   inkscape:export-filename="dt-skull.png"
   inkscape:export-xdpi="96"
   inkscape:export-ydpi="96"
   inkscape:version="1.3.2 (091e20e, 2023-11-25)"
   sodipodi:docname="dt-skull.svg"
   xmlns:inkscape="http://www.inkscape.org/namespaces/inkscape"
   xmlns:sodipodi="http://sodipodi.sourceforge.net/DTD/sodipodi-0.dtd"
   xmlns="http://www.w3.org/2000/svg"
   xmlns:svg="http://www.w3.org/2000/svg"><sodipodi:namedview
     id="namedview1"
     pagecolor="#ffffff"
     bordercolor="#000000"
     borderopacity="0.25"
     inkscape:showpageshadow="2"
     inkscape:pageopacity="0.0"
     inkscape:pagecheckerboard="0"
     inkscape:deskcolor="#d1d1d1"
     inkscape:document-units="mm"
     inkscape:zoom="1.4427428"
     inkscape:cx="406.51735"
     inkscape:cy="518.45691"
     inkscape:window-width="3840"
     inkscape:window-height="2107"
     inkscape:window-x="2808"
     inkscape:window-y="25"
     inkscape:window-maximized="0"
     inkscape:current-layer="layer1" /><defs
     id="defs1"><inkscape:path-effect
       effect="bspline"
       id="path-effect3"
       is_visible="true"
       lpeversion="1.3"
       weight="33.333333"
       steps="2"
       helper_size="0"
       apply_no_weight="true"
       apply_with_weight="true"
       only_selected="false"
       uniform="false" /><inkscape:path-effect
       effect="bspline"
       id="path-effect2"
       is_visible="true"
       lpeversion="1.3"
       weight="33.333333"
       steps="2"
       helper_size="0"
       apply_no_weight="true"
       apply_with_weight="true"
       only_selected="false"
       uniform="false" /><inkscape:path-effect
       effect="bspline"
       id="path-effect1"
       is_visible="true"
       lpeversion="1.3"
       weight="33.333333"
       steps="2"
       helper_size="0"
       apply_no_weight="true"
       apply_with_weight="true"
       only_selected="false"
       uniform="false" /></defs><g
     inkscape:label="Layer 1"
     inkscape:groupmode="layer"
     id="layer1"><path
       style="display:inline;fill:#000000"
       d="m 75.998826,161.52991 c -0.582084,-0.15322 -1.701447,-0.76599 -2.487475,-1.36171 -3.601639,-2.72963 -4.405677,-3.30994 -4.600843,-3.32063 -0.813361,-0.0445 -5.743974,-4.63443 -5.743974,-5.34703 0,-0.24972 -0.119062,-0.52761 -0.264583,-0.61755 -0.396379,-0.24498 -0.319194,-1.5726 0.161235,-2.77331 l 0.425819,-1.06422 1.328535,-1.0578 1.328535,-1.0578 h 1.062987 1.062987 l -0.161406,2.09308 -0.161406,2.09307 1.236877,1.01578 c 1.186975,0.9748 3.393393,2.47099 3.643945,2.47099 0.06608,0 0.843784,0.56555 1.728228,1.25677 0.884443,0.69123 1.868038,1.45865 2.185767,1.70538 0.317728,0.24674 1.109364,0.48486 1.759194,0.52917 l 1.1815,0.0806 0.1742,-1.04319 0.1742,-1.04318 0.85375,-0.76283 0.85376,-0.76283 1.98431,0.18594 1.98432,0.18595 1.09789,-0.34417 c 0.60385,-0.18929 1.21101,-0.44252 1.34926,-0.56274 0.13824,-0.12022 0.68103,-0.21858 1.2062,-0.21858 0.52516,0 1.15057,-0.14883 1.38979,-0.33073 l 0.43494,-0.33073 0.30489,-2.38125 c 0.53781,-4.20049 2.21711,-5.80627 4.71905,-4.51247 l 0.73932,0.38232 1.37796,2.38758 c 1.506565,2.61043 2.429402,3.46236 3.750542,3.46236 1.16132,0 6.09187,-1.31566 6.62267,-1.76719 l 0.42381,-0.36051 0.32403,-3.50021 0.32403,-3.50021 -0.0864,-8.73125 -0.0864,-8.73125 0.47002,-2.54867 c 0.92539,-5.0179 2.27319,-6.54766 8.52582,-9.67682 1.91927,-0.96051 8.96607,-4.16506 10.05416,-4.57216 1.47034,-0.55011 4.48473,-2.48708 6.37299,-4.09512 1.03129,-0.87825 2.80125,-2.31119 3.93324,-3.184307 2.73847,-2.112226 4.03123,-4.131116 5.7603,-8.995836 0.15517,-0.43656 0.36247,-0.91281 0.46066,-1.05833 0.0982,-0.14552 0.34881,-0.80036 0.55693,-1.45521 l 0.37838,-1.190617 -0.003,-5.15938 -0.003,-5.15937 -0.44436,-1.85209 c -0.2444,-1.01864 -0.57828,-2.32833 -0.74194,-2.91041 -0.16366,-0.58209 -0.40318,-1.47506 -0.53227,-1.98438 -0.94618,-3.73323 -1.23678,-4.1569 -2.6565,-3.87295 -0.8953,0.17906 -1.239,-0.21398 -0.73463,-0.84007 0.19777,-0.2455 0.57269,-0.83219 0.83317,-1.30377 l 0.47359,-0.85742 -1.10555,-2.053 c -0.60806,-1.12915 -1.56865,-2.648314 -2.13466,-3.375914 -0.56601,-0.72761 -1.85898,-2.41273 -2.87327,-3.74472 -2.50929,-3.29526 -5.65675,-6.59767 -7.37903,-7.74232 -0.78484,-0.52161 -1.73734,-1.15338 -2.11667,-1.40394 -0.37933,-0.25056 -1.16594,-0.7227 -1.74802,-1.0492 -0.58209,-0.32649 -1.29646,-0.7419 -1.5875,-0.92312 -0.29104,-0.18122 -0.70776,-0.41476 -0.92604,-0.51898 -0.21829,-0.10421 -0.87313,-0.48726 -1.45521,-0.85121 -0.58209,-0.36395 -1.65365,-0.97932 -2.38125,-1.36749 -0.72761,-0.38817 -1.75853,-0.95415 -2.29093,-1.25773 -0.53241,-0.30359 -1.78257,-0.81507 -2.77813,-1.13664 l -1.81011,-0.58467 -7.80521,-0.12014 c -10.661302,-0.1641 -14.730052,0.22567 -18.388542,1.76153 -0.29104,0.12219 -1.06495,0.42754 -1.71979,0.67857 -1.42472,0.54616 -7.330464,3.22402 -11.625043,5.27118 -0.791219,0.37716 -1.52644,0.68575 -1.633824,0.68575 -1.340485,0 -8.786309,5.1193 -12.068861,8.29783 l -2.70585,2.62009 -2.05665,3.066 c -2.899151,4.321984 -5.071514,8.282014 -6.407683,11.680664 -0.314661,0.80037 -0.681385,1.69334 -0.814942,1.98438 -0.133557,0.29104 -0.571446,1.77932 -0.973086,3.30729 l -0.730256,2.77813 -0.0049,3.06889 -0.0049,3.0689 0.389746,0.76756 c 1.851723,3.646757 10.152018,12.276937 11.807665,12.276937 0.107986,0 0.384307,0.1677 0.614047,0.37266 0.229739,0.20496 1.854842,1.089726 3.61134,1.966153 1.756497,0.87642 3.344178,1.7749 3.52818,1.9966 0.184001,0.22171 0.889992,0.72068 1.568868,1.10883 0.678876,0.38814 2.087253,1.54121 3.129728,2.56238 l 1.895407,1.85666 1.422391,-1.52814 1.422391,-1.52814 h 1.134589 c 2.256013,0 2.567153,1.42067 0.867712,3.9619 -0.6035,0.90243 -1.097273,1.69571 -1.097273,1.76284 0,0.0671 -0.395791,0.72304 -0.879534,1.45757 l -0.879535,1.3355 0.617192,2.98707 0.617193,2.98707 -0.144651,3.30729 c -0.257068,5.8776 -0.667217,10.64537 -1.186485,13.79227 -0.279222,1.69215 -0.58832,4.04364 -0.686885,5.22552 l -0.17921,2.14887 h 0.534811 c 0.294146,0 0.691313,0.18858 0.882593,0.41906 l 0.347784,0.41905 -0.277748,0.44084 c -0.152762,0.24247 -0.566673,0.45251 -0.919804,0.46676 -0.35313,0.0143 -0.98478,0.34354 -1.403665,0.73175 l -0.761609,0.70584 -0.552203,-0.16484 c -1.782766,-0.53216 -1.895954,-2.916 -0.553426,-11.65563 0.750793,-4.88753 1.006741,-14.77605 0.437542,-16.90437 -0.276128,-1.03248 -0.583833,-1.05713 -1.738789,-0.13929 -0.547773,0.43532 -2.979118,1.76328 -5.40299,2.95104 -5.239185,2.56732 -9.08749,5.0609 -13.402872,8.68465 -3.908349,3.28194 -7.580149,5.29811 -9.670521,5.31004 -0.973275,0.006 -1.309266,0.47716 -1.312828,1.84271 -0.01159,4.44436 -3.07385,8.79352 -7.934359,11.26874 l -1.455209,0.74107 -2.176998,0.12 c -7.558045,0.41661 -15.417793,-6.73768 -15.417793,-14.03397 v -0.99303 h -0.745728 c -0.8402697,0 -3.2082451,-0.63897 -4.4278461,-1.1948 -1.810988,-0.82536 -3.913211,-3.63074 -5.151806,-6.87499 -1.10530202,-2.89512 -0.91132102,-8.26724 0.413187,-11.44281 1.161762,-2.78537 6.36508,-5.61085 10.3477041,-5.61896 l 1.89072,-0.004 3.136363,0.75808 c 2.802305,0.67733 5.310879,1.58736 6.840531,2.48155 0.291041,0.17013 1.160019,0.64121 1.931061,1.04684 l 1.401895,0.73752 1.083492,-0.24345 1.083492,-0.24344 1.351071,-1.32228 c 2.043371,-1.99982 4.022267,-3.39118 6.510447,-4.57748 l 2.248958,-1.07224 2.695422,-2.61901 c 1.482482,-1.44045 2.825322,-2.619 2.98409,-2.619 0.158768,0 1.16682,-0.41672 2.240115,-0.92604 1.073296,-0.50933 2.218501,-0.926047 2.5449,-0.926047 h 0.593452 L 47.629893,96.841747 C 38.162433,87.60383 37.480322,80.77411 44.478714,65.29019 c 0.164431,-0.3638 0.373282,-0.72099 0.464114,-0.79375 0.09083,-0.0728 0.597861,-0.96573 1.126733,-1.98437 0.528871,-1.01865 1.109588,-2.08241 1.290481,-2.36391 2.013317,-3.133124 2.046286,-3.244834 0.92421,-3.131624 l -0.859896,0.0868 -0.960205,-0.60292 c -0.528112,-0.3316 -2.016394,-1.30879 -3.307291,-2.17153 -1.290898,-0.86274 -2.786335,-1.85618 -3.323194,-2.20765 -0.536858,-0.35147 -1.935875,-0.97137 -3.108925,-1.37756 -1.17305,-0.40619 -2.426254,-0.93079 -2.784897,-1.16578 -0.84855,-0.556 -1.142277,-0.5402 -2.687584,0.14449 -4.316313,1.91247 -9.581373,2.00373 -13.058253,0.22635 -2.326014,-1.18906 -8.2029387,-6.33789 -8.2072987,-7.19049 -4.91e-4,-0.0961 -0.451291,-0.75092 -1.0017774,-1.45521 -0.550486,-0.70429 -1.337651,-2.03933 -1.749256,-2.96677 l -0.748371,-1.68624 0.10391,-2.54709 0.10391,-2.547093 0.837203,-1.784887 c 1.9705274,-4.201095 7.2666711,-6.554911 14.0550771,-6.246633 1.186209,0.05387 2.156744,0.002 2.156744,-0.115237 0,-0.117249 0.238125,-0.706042 0.529167,-1.308429 0.291041,-0.602387 0.529166,-1.181288 0.529166,-1.286447 0,-1.234512 4.416281,-7.151157 6.439384,-8.627067 4.485467,-3.272272 7.162207,-3.858974 10.391612,-2.2776907 l 1.376213,0.6738667 0.790359,1.225845 c 1.482522,2.299387 2.69964,5.794813 2.776127,7.97272 0.09832,2.799534 -0.786583,9.106959 -1.531191,10.914063 l -0.190786,0.463021 h 0.657454 c 1.084137,0 2.435556,0.702678 4.206385,2.187128 0.921288,0.77229 2.687099,2.16416 3.924026,3.09303 1.236927,0.92888 3.461195,2.68068 4.942818,3.8929 1.481622,1.21221 2.821075,2.20403 2.976562,2.20403 0.867694,-1e-5 0.06783,1.94055 -1.034917,2.5108 -1.556547,0.80492 -3.041129,0.25094 -6.355296,-2.37153 -0.945886,-0.74847 -2.624502,-2.02602 -3.730259,-2.839 -1.105757,-0.81298 -2.617203,-2.01702 -3.358769,-2.67563 l -1.348303,-1.19749 -1.493078,-0.18654 -1.493079,-0.18655 -1.101277,-0.83821 -1.101277,-0.83821 -0.08192,-1.43337 c -0.04692,-0.821065 0.150034,-2.39843 0.461057,-3.692474 0.547732,-2.278892 0.998325,-5.313195 1.258803,-8.476801 l 0.1416,-1.719792 -0.838669,-2.17195 -0.838669,-2.17195 -0.829536,-0.698009 -0.829536,-0.698008 -1.017186,0.162654 C 34.238692,13.610824 29.639974,18.55487 27.81389,23.933477 l -0.430272,1.267336 0.167796,1.805419 0.167796,1.805419 -0.776819,0.776818 c -1.028385,1.028386 -3.463356,0.565092 -3.463356,-0.658962 0,-0.183859 -0.237753,-0.549452 -0.52834,-0.812429 L 22.422356,27.638937 19.70955,27.80567 c -4.381744,0.269306 -7.254444,1.483455 -8.269057,3.494921 l -0.529166,1.049075 0.01766,1.98437 0.01767,1.98438 0.385992,0.66145 c 2.408304,4.12702 6.764579,8.31349 9.799439,9.41747 l 1.156323,0.42063 2.412376,-0.14716 c 2.595436,-0.15832 5.106483,-0.90976 6.118401,-1.83094 l 0.593278,-0.54008 1.4669,-0.12165 1.466899,-0.12164 0.982531,1.04552 0.982531,1.04552 2.116667,0.84503 c 2.500592,0.99831 6.276515,3.33144 8.972065,5.5438 l 1.930625,1.58456 0.163857,0.81929 c 0.09012,0.45061 0.09483,0.99918 0.01045,1.21905 -0.08437,0.21988 -0.0216,0.39977 0.139485,0.39977 0.16109,0 0.292891,-0.0925 0.292891,-0.20556 0,-0.92214 5.602602,-6.92746 8.731249,-9.35885 1.091407,-0.84818 2.103438,-1.63844 2.248959,-1.75614 0.392023,-0.31708 5.955797,-3.49611 6.118711,-3.49611 0.07687,0 1.231919,-0.52161 2.566776,-1.15912 2.835513,-1.35421 8.246746,-3.82829 10.893676,-4.98073 1.01865,-0.4435 2.08207,-0.92486 2.36316,-1.06968 0.97197,-0.50077 2.8879,-1.0307 6.49129,-1.79545 l 2.50445,-0.53152 9.534092,0.0209 9.5341,0.0209 1.85208,0.36832 c 2.64223,0.52545 6.58445,2.11834 8.46323,3.41965 0.43467,0.30106 1.22343,0.78551 1.75282,1.07656 4.4306,2.43583 4.08734,2.23046 8.07065,4.82864 1.61748,1.05503 3.014,1.91823 3.10338,1.91823 0.1433,0 0.86492,-0.89804 4.14579,-5.15937 0.44815,-0.58209 1.40968,-1.53459 2.13673,-2.11667 7.25018,-5.804594 7.01075,-5.46399 5.31463,-7.560197 -1.42258,-1.758145 -3.2216,-4.83988 -3.2216,-5.518632 0,-0.242759 -0.11216,-0.554489 -0.24924,-0.692733 -0.72268,-0.728813 -1.05059,-6.917232 -0.51896,-9.793907 0.70293,-3.8035774 3.4761,-7.181784 7.51507,-9.154673 0.43657,-0.213245 1.03188,-0.518086 1.32292,-0.677424 1.82031,-0.996581 3.73961,-1.727538 5.82083,-2.21684597 l 2.38125,-0.55984397 1.7198,0.14823497 c 2.96065,0.255191 4.52582,1.09444497 7.59146,4.07059197 2.16518,2.101982 2.86732,3.143975 3.98893,5.919698 0.15272,0.377951 0.36177,1.360217 0.46454,2.182812 l 0.18687,1.495627 1.62316,0.0029 c 7.32842,0.01293 11.55014,5.225675 12.85457,15.872136 l 0.27555,2.248962 -0.24496,1.4552 c -0.99276,5.89756 -5.67881,11.64167 -9.49727,11.64167 -1.40673,0 -3.55071,-0.70373 -6.16235,-2.02271 -0.0904,-0.0456 -0.44754,0.1643 -0.79375,0.46651 -0.3462,0.30222 -1.06368,0.77216 -1.59438,1.04431 -0.53071,0.27216 -2.37618,2.01537 -4.10105,3.87382 -5.08284,5.47648 -6.67149,6.98767 -9.88299,9.40106 -1.67349,1.25761 -3.90868,3.162478 -4.96709,4.233048 l -1.92438,1.9465 0.49847,1.57509 c 0.27415,0.86629 0.64681,2.22992 0.82811,3.03029 0.18131,0.80036 0.42613,1.64612 0.54405,1.87946 0.11792,0.23333 0.5286,1.82517 0.91262,3.53741 l 0.69823,3.11316 0.0205,5.19384 0.0205,5.19384 -0.72524,2.248947 c -0.39888,1.23693 -0.80711,2.36803 -0.90718,2.51355 -0.10007,0.14552 -0.45113,0.97895 -0.78014,1.85208 -1.78564,4.738709 -3.20206,6.865603 -6.25292,9.389353 l -1.71995,1.4228 0.99024,0.58875 c 0.54464,0.32382 1.44522,0.84039 2.00128,1.14794 1.95098,1.07904 4.03782,2.75698 6.40158,5.14723 1.31204,1.32674 2.93993,2.70481 3.61753,3.06239 l 1.23201,0.65013 1.40955,-0.63509 c 0.77525,-0.34931 1.82627,-1.01865 2.33559,-1.48743 0.50932,-0.46878 1.46182,-1.12934 2.11667,-1.46791 l 1.19062,-0.61559 1.19063,0.0268 c 0.65484,0.0148 2.32172,0.0847 3.70417,0.15541 l 2.51354,0.12855 1.21156,0.55589 1.21156,0.55588 1.99294,2.19679 c 4.39581,4.84544 4.65621,5.21102 5.80522,8.14992 l 0.36205,0.92605 v 3.0427 3.04271 l -0.66146,0.9799 c -0.79432,1.17673 -2.27087,2.06281 -3.43741,2.06281 -0.90285,0 -3.74412,0.64707 -4.63238,1.05497 -1.16333,0.53421 -2.75241,0.79423 -4.86246,0.79564 l -2.21663,0.001 0.23225,1.12448 c 0.12774,0.61847 0.23226,2.6723 0.23226,4.56407 v 3.43958 l -0.90037,2.51354 c -0.4952,1.38245 -1.29887,3.14093 -1.78593,3.90774 -0.48707,0.76681 -0.88558,1.44545 -0.88558,1.50809 0,0.38731 -1.96221,2.9039 -3.33683,4.27956 -3.55123,3.55394 -7.00627,3.9317 -12.26369,1.34085 l -2.23906,-1.1034 -2.26494,-2.25444 -2.26493,-2.25444 -0.98455,-1.98438 c -0.54151,-1.0914 -1.16932,-2.87734 -1.39514,-3.96875 l -0.41058,-1.98437 0.17187,-1.71979 c 0.21473,-2.14867 0.95999,-3.70285 2.4217,-5.0502 1.70589,-1.57244 -1.85219,-6.44552 -8.12551,-11.12855 -0.50933,-0.38021 -2.24136,-1.92592 -3.84897,-3.43492 -2.71171,-2.54536 -4.29134,-3.63031 -5.94062,-4.08024 -0.3638,-0.0992 -0.90734,-0.48051 -1.20787,-0.84725 l -0.54642,-0.66681 -1.43796,1.00294 c -1.69611,1.18299 -1.84565,1.39549 -2.32433,3.30294 l -0.3652,1.45521 -0.0521,11.37709 -0.0521,11.37708 -0.32049,1.85208 c -0.71427,4.12777 -2.19421,5.85596 -5.86444,6.84818 -0.80037,0.21638 -2.16958,0.59806 -3.04271,0.84819 -0.88754,0.25426 -2.58119,0.46601 -3.84117,0.48025 l -2.25367,0.0255 -1.747552,-0.8599 c -2.1413,-1.05365 -1.90281,-1.06636 -3.08227,0.16436 l -0.98159,1.02425 -1.49593,0.43096 c -0.82276,0.23702 -1.79021,0.43095 -2.14989,0.43095 -0.35968,0 -1.32701,0.29766 -2.14963,0.66146 -0.82263,0.3638 -1.67088,0.66146 -1.88501,0.66146 -0.21413,0 -0.38933,0.11492 -0.38933,0.25538 0,0.61821 -1.6923,2.11183 -2.83321,2.50058 l -1.22981,0.41904 -2.53256,-0.0274 c -1.3929,-0.015 -3.0088,-0.15271 -3.590883,-0.30594 z m 77.602204,-7.18095 c 1.28236,-0.66498 3.19006,-2.95301 4.43405,-5.31805 0.30618,-0.58209 0.79476,-1.47506 1.08575,-1.98438 1.87343,-3.27909 2.11131,-7.33272 0.69868,-11.90625 l -0.44947,-1.45521 -1.13821,-1.11461 -1.13821,-1.1146 v -1.0718 c 0,-3.07722 3.65896,-4.11809 5.35845,-1.52433 l 0.44149,0.67379 1.89626,0.58689 1.89627,0.58688 1.38421,-0.16269 c 0.76132,-0.0895 1.78794,-0.33064 2.28137,-0.53593 0.49344,-0.20529 1.90919,-0.58664 3.14612,-0.84746 2.64956,-0.55869 2.62275,-0.5312 2.48362,-2.54642 l -0.10839,-1.56991 -0.68191,-1.22141 c -0.75554,-1.35332 -2.42342,-3.43485 -4.44736,-5.55038 l -1.32893,-1.38906 h -0.96511 c -0.53081,0 -1.60037,-0.12047 -2.3768,-0.26772 l -1.4117,-0.26772 -0.82371,0.27185 c -0.45304,0.14951 -1.28694,0.74624 -1.85312,1.32605 -0.56617,0.57982 -1.20858,1.05421 -1.42757,1.05421 -0.21899,0 -0.83923,0.43068 -1.37829,0.95707 l -0.98013,0.95706 -2.20603,-0.26051 c -2.06441,-0.24378 -3.34443,-0.64947 -4.57461,-1.44986 -1.35293,-0.88027 -3.04453,-2.319 -4.246,-3.61129 -1.49792,-1.61115 -3.73892,-3.40285 -5.39359,-4.31223 -1.86223,-1.02345 -2.04831,-1.13569 -3.15944,-1.90571 l -1.0717,-0.74268 -2.50465,1.57055 c -1.37756,0.8638 -4.03403,2.25597 -5.90327,3.09372 -1.86923,0.83774 -3.51171,1.63039 -3.64996,1.76144 -0.13824,0.13105 -0.51817,0.23827 -0.84428,0.23827 -0.89162,0 -0.98474,0.4401 -0.16082,0.76 1.5345,0.5958 3.19011,1.76704 6.16152,4.35888 1.69386,1.47748 3.72064,3.16258 4.50397,3.74466 2.04976,1.52316 5.69111,5.05471 6.93895,6.72973 0.58922,0.79093 1.2216,1.62437 1.40529,1.85208 1.43889,1.78375 1.78634,2.13382 2.11789,2.13382 0.57078,0 1.42569,1.59732 1.42681,2.66586 l 9.9e-4,0.94606 -0.59532,0.55568 c -0.32742,0.30562 -0.89297,0.6303 -1.25677,0.7215 -0.3638,0.0912 -1.20986,0.565 -1.88014,1.05288 l -1.21868,0.88705 -0.17038,0.85189 c -1.1732,5.86597 7.06867,14.18507 11.68286,11.79234 z M 28.585403,144.22741 c 2.258179,-1.16772 3.525623,-2.31008 4.357843,-3.92775 l 0.680583,-1.32292 0.171481,-2.29602 0.171482,-2.29602 0.719835,-1.08775 c 0.918281,-1.38761 1.90061,-1.97577 4.243136,-2.54053 2.731837,-0.65862 3.571458,-1.15338 7.911039,-4.66166 5.301646,-4.28605 7.683875,-5.82669 13.324214,-8.61703 4.274972,-2.11488 7.272513,-3.99407 8.250238,-5.17216 l 0.329901,-0.39751 -1.49518,-1.41462 c -0.822349,-0.77804 -2.166835,-1.87581 -2.987748,-2.43949 -0.820912,-0.56369 -1.699086,-1.20555 -1.951498,-1.42637 -0.252412,-0.22082 -1.502568,-0.91763 -2.778125,-1.54847 -2.921371,-1.44479 -5.089273,-2.65787 -5.639029,-3.15539 -0.2343,-0.21204 -0.516907,-0.38552 -0.628017,-0.38552 -0.111109,0 -0.504744,-0.23813 -0.874743,-0.52917 -0.921093,-0.72453 -1.038966,-0.67884 -1.223351,0.47425 -0.180564,1.12918 -0.855325,1.84486 -3.126702,3.31629 -0.824852,0.53435 -2.253601,1.78495 -3.175,2.77913 -2.065923,2.22909 -3.27062,3.17564 -5.612482,4.40982 -1.813728,0.95586 -4.846269,3.22063 -5.85237,4.3707 -0.8235,0.94133 -2.807868,2.11231 -3.579578,2.11231 -0.383819,0 -0.779451,0.0816 -0.879182,0.18133 -0.316312,0.31631 -2.128471,0.86888 -2.863075,0.87302 l -0.707252,0.004 -0.856769,-0.85676 c -0.921541,-0.92154 -1.13206,-1.05675 -3.549561,-2.27976 -2.713707,-1.37286 -6.737421,-2.41973 -9.30038,-2.41973 h -1.172338 l -1.6428071,0.83756 c -2.754944,1.40456 -2.960269,1.69952 -3.36854,4.83905 l -0.2424,1.86402 0.431831,2.21741 0.431831,2.2174 0.816819,1.22218 c 1.041258,1.558 2.387542,2.23172 4.7337131,2.36888 l 1.800229,0.10525 1.265962,-0.78696 c 0.696279,-0.43284 1.695337,-0.86752 2.220128,-0.96597 l 0.954165,-0.179 0.861206,0.76948 0.861206,0.76949 v 0.99385 0.99386 l -0.683441,0.56102 c -0.375892,0.30857 -1.084314,0.87212 -1.57427,1.25234 l -0.890831,0.69131 0.04694,1.64685 c 0.08781,3.08065 2.190006,6.29742 5.112434,7.823 2.788241,1.45554 5.374355,1.83194 6.958452,1.01278 z M 147.71086,57.593606 c 0.72213,-0.74068 2.63516,-2.34452 4.25117,-3.5641 3.3664,-2.54056 4.24644,-3.36761 8.95464,-8.41549 1.88214,-2.01793 4.08374,-4.10153 4.89243,-4.6302 1.56357,-1.02218 2.37385,-1.81635 2.38822,-2.34076 0.0152,-0.55338 1.92938,-1.66319 2.8687,-1.66319 h 0.88497 l 0.83955,0.84078 c 3.89664,3.90238 6.85682,2.78034 9.4058,-3.5652 0.52488,-1.30666 0.11431,-8.055633 -0.53362,-8.771721 -0.12509,-0.138245 -0.22743,-0.529941 -0.22743,-0.870436 0,-0.672906 -0.79813,-2.375782 -1.68863,-3.602819 -0.30818,-0.424653 -1.27471,-1.112821 -2.14783,-1.529264 l -1.5875,-0.757168 -1.40646,-2.08e-4 c -1.74874,-2.6e-4 -2.1278,0.198942 -4.35319,2.287643 l -1.79089,1.680898 h -1.17536 -1.17536 l -0.54971,-0.590047 c -1.20108,-1.289207 -0.89227,-2.893046 0.76867,-3.992209 l 0.98502,-0.651851 0.33621,-1.550134 c 0.18491,-0.852574 0.37359,-1.755081 0.41928,-2.005573 0.41078,-2.25205 -2.74172,-6.652151 -6.0279,-8.41344 -3.55273,-1.904148 -13.34542,2.492955 -15.33234,6.884504 l -0.53868,1.190625 -0.0185,2.645833 c -0.0296,4.236729 1.17644,7.663536 3.56243,10.121785 l 1.08999,1.123007 h 1.04824 1.04823 l 0.7734,0.773397 0.7734,0.773398 v 0.778421 c 0,0.967013 -0.84182,2.071079 -1.94267,2.547869 -0.4595,0.19901 -2.14708,1.53887 -3.75018,2.97746 -1.60309,1.43859 -3.83455,3.2515 -4.95879,4.02868 -1.12424,0.77719 -2.45142,1.96441 -2.94928,2.63828 -0.49786,0.67386 -1.39649,1.85891 -1.99696,2.63344 -0.60047,0.77453 -1.1533,1.72703 -1.2285,2.11667 l -0.13673,0.70843 3.34067,4.23333 c 1.83737,2.32833 3.76599,4.91794 4.28583,5.75469 1.14157,1.83751 0.98849,1.82723 2.59968,0.17467 z M 83.387928,123.13237 c -2.48263,-0.35471 -3.44031,-0.88778 -3.99958,-2.22629 l -0.40273,-0.96387 0.15847,-1.15619 c 0.1811,-1.32124 0.5911,-2.25053 2.70692,-6.13532 0.83219,-1.52797 1.95389,-3.61805 2.49266,-4.64462 2.54698,-4.85298 8.43687,-13.596223 10.12036,-15.023153 l 1.19709,-1.01465 0.55375,0.29635 0.55375,0.29636 v 0.7294 c 0,0.40117 -0.60827,1.79024 -1.35171,3.08681 -0.74345,1.29658 -1.40926,2.50737 -1.47959,2.690639 -0.0703,0.18328 0.34696,0.903377 0.9273,1.600234 2.29685,2.75794 5.884112,12.66311 5.866872,16.19965 l -0.006,1.20694 -0.5174,0.66145 c -0.284577,0.36381 -0.520057,0.79971 -0.523297,0.96867 -0.0102,0.53121 -1.570835,1.65088 -2.729885,1.95851 -0.61185,0.16239 -2.17001,0.64177 -3.46259,1.06529 l -2.35014,0.77003 -2.80924,-0.0305 c -1.54507,-0.0168 -3.77038,-0.16786 -4.94513,-0.3357 z m 8.2922,-4.7162 c 0.47555,-0.24089 1.49781,-0.57967 2.27169,-0.75286 0.77388,-0.17319 1.53453,-0.51902 1.69035,-0.76852 l 0.28329,-0.45363 -0.34725,-1.43221 c -0.42702,-1.76117 -2.16246,-7.20586 -2.67025,-8.37752 -1.44406,-3.33199 -1.36472,-3.31251 -2.69354,-0.66146 -0.5653,1.12779 -1.83626,3.59833 -2.82435,5.4901 -3.33714,6.38919 -3.56746,6.85365 -3.45457,6.96654 0.61774,0.61773 6.52024,0.60977 7.74463,-0.0104 z M 125.7405,97.234037 c -1.7876,-0.73703 -2.56313,-1.34248 -3.95645,-3.08875 -0.80455,-1.00835 -1.58294,-1.90761 -1.72975,-1.99834 -0.40709,-0.25159 -0.31814,-0.92445 0.14574,-1.10246 0.24625,-0.0945 0.70211,0.11895 1.13035,0.52923 0.80419,0.77046 3.60854,1.7624 4.98254,1.7624 2.31727,0 5.69108,-2.98971 8.80611,-7.803547 l 1.88226,-2.90877 0.54243,-1.8214 0.54244,-1.8214 -0.30324,-1.75212 -0.30323,-1.75213 -0.68681,-0.72053 c -0.86603,-0.90856 -2.52747,-1.43862 -5.23156,-1.66907 -2.36041,-0.20116 -4.05101,-0.53158 -7.92555,-1.54898 l -2.63388,-0.69163 -1.99633,0.002 -1.99632,0.002 -1.71979,0.87409 -1.7198,0.87409 -0.8622,1.27424 c -0.47421,0.70083 -1.05437,1.93528 -1.28924,2.74322 l -0.42705,1.46898 0.13784,1.52012 c 0.25791,2.84425 1.22249,3.74496 4.0716,3.80196 3.84047,0.0768 3.86719,2.22961 0.038,3.06407 l -1.50603,0.3282 -1.26802,-0.35502 c -1.58107,-0.44267 -3.33944,-2.01747 -4.08951,-3.66256 l -0.55586,-1.21914 -0.0223,-2.77813 -0.0223,-2.77812 0.45395,-1.27735 c 0.71482,-2.01145 1.146,-2.70379 2.63049,-4.22376 l 1.38763,-1.42079 1.85208,-0.89866 1.85208,-0.89866 3.175,0.004 3.175,0.004 2.24896,0.62083 c 3.13776,0.86618 3.91675,1.01379 7.67292,1.45395 1.81901,0.21315 3.96213,0.59826 4.7625,0.85579 l 1.45521,0.46824 1.32321,1.34408 1.32321,1.34409 0.44501,1.44468 c 1.78368,5.79048 -0.75415,12.66381 -7.03143,19.043587 l -1.97645,2.00872 -1.51599,0.74231 -1.51599,0.74231 -1.47891,0.0993 c -0.8134,0.0546 -1.8361,-0.048 -2.27266,-0.22799 z M 77.057159,89.646397 C 73.215964,88.808307 71.597121,87.58006 71.245786,85.23719 L 71.07161,84.07571 h -0.857927 -0.857927 l -0.816032,-0.8599 c -0.448817,-0.47294 -1.024233,-1.27241 -1.278701,-1.7766 l -0.462669,-0.91671 0.157658,-2.39058 c 0.154796,-2.3472 0.742087,-4.65778 1.650004,-6.49163 0.618467,-1.2492 10.124752,-10.70275 12.328132,-12.259744 2.76759,-1.95567 4.64772,-2.37179 7.27086,-1.60922 l 1.43971,0.41853 1.9083,1.51853 c 4.48736,3.570794 7.2004,8.077364 7.5018,12.461074 l 0.15463,2.24896 -0.44203,1.71979 c -0.76317,2.96922 -1.47929,4.66587 -3.52155,8.34336 -1.0944,1.97068 -4.50375,4.339067 -7.46541,5.186027 l -1.72578,0.49352 -3.44043,-0.0265 -3.44042,-0.0265 z m 8.598959,-4.836207 c 0.21828,-0.0639 0.91964,-0.2644 1.55857,-0.44555 l 1.1617,-0.32937 1.40132,-1.32531 1.40132,-1.32531 1.05961,-2.1602 c 1.35223,-2.75673 1.97193,-5.11439 1.95872,-7.45187 l -0.0105,-1.85208 -1.02072,-1.81006 c -1.18945,-2.10928 -3.3772,-4.61646 -5.00637,-5.73736 l -1.1438,-0.78696 h -1.03546 -1.03546 l -1.68972,1.12448 c -0.92935,0.61847 -3.79553,3.20808 -6.369292,5.75469 l -4.679567,4.63021 -0.518501,1.19062 c -1.616395,3.71171 -1.873412,5.85862 -0.855208,7.14375 l 0.524071,0.66146 0.0059,-0.56291 c 0.0032,-0.30961 0.197361,-0.72183 0.43139,-0.91606 l 0.425506,-0.35314 0.368244,0.50361 c 0.202534,0.27698 0.368243,0.75201 0.368243,1.05562 0,1.43514 0.985866,1.99428 4.630204,2.62603 1.30969,0.22704 2.61938,0.46684 2.91042,0.53289 0.60296,0.13684 4.55871,0.009 5.15938,-0.16718 z"
       id="path2" /></g></svg>
